<svg xmlns="http://www.w3.org/2000/svg" viewBox="0 0 100 100" preserveAspectRatio="xMidYMid" width="214" height="214" style="shape-rendering: auto; display: block; background: rgb(255, 255, 255);" xmlns:xlink="http://www.w3.org/1999/xlink"><g><g transform="rotate(0 50 50)">
  <rect fill="#f2b203" height="11" width="6" ry="5.5" rx="3" y="25.5" x="47">
    <animate repeatCount="indefinite" begin="-1.2474012474012475s" dur="1.3513513513513513s" keyTimes="0;1" values="1;0" attributeName="opacity"></animate>
  </rect>
</g><g transform="rotate(27.692307692307693 50 50)">
  <rect fill="#f2b203" height="11" width="6" ry="5.5" rx="3" y="25.5" x="47">
    <animate repeatCount="indefinite" begin="-1.1434511434511436s" dur="1.3513513513513513s" keyTimes="0;1" values="1;0" attributeName="opacity"></animate>
  </rect>
</g><g transform="rotate(55.38461538461539 50 50)">
  <rect fill="#f2b203" height="11" width="6" ry="5.5" rx="3" y="25.5" x="47">
    <animate repeatCount="indefinite" begin="-1.0395010395010396s" dur="1.3513513513513513s" keyTimes="0;1" values="1;0" attributeName="opacity"></animate>
  </rect>
</g><g transform="rotate(83.07692307692308 50 50)">
  <rect fill="#f2b203" height="11" width="6" ry="5.5" rx="3" y="25.5" x="47">
    <animate repeatCount="indefinite" begin="-0.9355509355509356s" dur="1.3513513513513513s" keyTimes="0;1" values="1;0" attributeName="opacity"></animate>
  </rect>
</g><g transform="rotate(110.76923076923077 50 50)">
  <rect fill="#f2b203" height="11" width="6" ry="5.5" rx="3" y="25.5" x="47">
    <animate repeatCount="indefinite" begin="-0.8316008316008316s" dur="1.3513513513513513s" keyTimes="0;1" values="1;0" attributeName="opacity"></animate>
  </rect>
</g><g transform="rotate(138.46153846153845 50 50)">
  <rect fill="#f2b203" height="11" width="6" ry="5.5" rx="3" y="25.5" x="47">
    <animate repeatCount="indefinite" begin="-0.7276507276507277s" dur="1.3513513513513513s" keyTimes="0;1" values="1;0" attributeName="opacity"></animate>
  </rect>
</g><g transform="rotate(166.15384615384616 50 50)">
  <rect fill="#f2b203" height="11" width="6" ry="5.5" rx="3" y="25.5" x="47">
    <animate repeatCount="indefinite" begin="-0.6237006237006237s" dur="1.3513513513513513s" keyTimes="0;1" values="1;0" attributeName="opacity"></animate>
  </rect>
</g><g transform="rotate(193.84615384615384 50 50)">
  <rect fill="#f2b203" height="11" width="6" ry="5.5" rx="3" y="25.5" x="47">
    <animate repeatCount="indefinite" begin="-0.5197505197505198s" dur="1.3513513513513513s" keyTimes="0;1" values="1;0" attributeName="opacity"></animate>
  </rect>
</g><g transform="rotate(221.53846153846155 50 50)">
  <rect fill="#f2b203" height="11" width="6" ry="5.5" rx="3" y="25.5" x="47">
    <animate repeatCount="indefinite" begin="-0.4158004158004158s" dur="1.3513513513513513s" keyTimes="0;1" values="1;0" attributeName="opacity"></animate>
  </rect>
</g><g transform="rotate(249.23076923076923 50 50)">
  <rect fill="#f2b203" height="11" width="6" ry="5.5" rx="3" y="25.5" x="47">
    <animate repeatCount="indefinite" begin="-0.31185031185031187s" dur="1.3513513513513513s" keyTimes="0;1" values="1;0" attributeName="opacity"></animate>
  </rect>
</g><g transform="rotate(276.9230769230769 50 50)">
  <rect fill="#f2b203" height="11" width="6" ry="5.5" rx="3" y="25.5" x="47">
    <animate repeatCount="indefinite" begin="-0.2079002079002079s" dur="1.3513513513513513s" keyTimes="0;1" values="1;0" attributeName="opacity"></animate>
  </rect>
</g><g transform="rotate(304.61538461538464 50 50)">
  <rect fill="#f2b203" height="11" width="6" ry="5.5" rx="3" y="25.5" x="47">
    <animate repeatCount="indefinite" begin="-0.10395010395010396s" dur="1.3513513513513513s" keyTimes="0;1" values="1;0" attributeName="opacity"></animate>
  </rect>
</g><g transform="rotate(332.3076923076923 50 50)">
  <rect fill="#f2b203" height="11" width="6" ry="5.5" rx="3" y="25.5" x="47">
    <animate repeatCount="indefinite" begin="0s" dur="1.3513513513513513s" keyTimes="0;1" values="1;0" attributeName="opacity"></animate>
  </rect>
</g><g></g></g><!-- [ldio] generated by https://loading.io --></svg>